# xmcd
#
# Track frame offsets:
#   150
#   21819
#   37215
#   52119
#   69534
#   88341
#   106705
#   129719
#   145460
#   163619
#   178396
#   193707
#   212517
#   231986
#   248189
#   263340
#   277620
#   287079
#   307391
#   326302
#
# Disc length: 4552 seconds
#
# Revision: 0
# Processed by: cddbd v1.5.2PL0 Copyright (c) Steve Scherf et al.
# Submitted via: uFREEDB ActiveX Control 1.5
#
DISCID=3111c614
DTITLE=Sérgio Reis  - Sertanejo
DYEAR=2013
DGENRE=Country
TTITLE0=Sérgio Reis - Track 01
TTITLE1=Sérgio Reis - Track 02
TTITLE2=Sérgio Reis - Track 03
TTITLE3=Sérgio Reis - Track 04
TTITLE4=Sérgio Reis - Track 05
TTITLE5=Sérgio Reis - Track 06
TTITLE6=Sérgio Reis - Track 07
TTITLE7=Sérgio Reis - Track 08
TTITLE8=Sérgio Reis - Track 09
TTITLE9=Sérgio Reis - Track 10
TTITLE10=Sérgio Reis - Track 11
TTITLE11=Sérgio Reis - Track 12
TTITLE12=Sérgio Reis - Track 13
TTITLE13=Sérgio Reis - Track 14
TTITLE14=Sérgio Reis - Track 15
TTITLE15=Sérgio Reis - Track 16
TTITLE16=Sérgio Reis - Track 17
TTITLE17=Sérgio Reis - Track 18
TTITLE18=Sérgio Reis - Track 19
TTITLE19=Sérgio Reis - Track 20
EXTD=
EXTT0=
EXTT1=
EXTT2=
EXTT3=
EXTT4=
EXTT5=
EXTT6=
EXTT7=
EXTT8=
EXTT9=
EXTT10=
EXTT11=
EXTT12=
EXTT13=
EXTT14=
EXTT15=
EXTT16=
EXTT17=
EXTT18=
EXTT19=
PLAYORDER=
